<svg xmlns="http://www.w3.org/2000/svg" viewBox="0 0 226.99 94.7"><defs><style>.cls-1{fill:#fff;stroke:#fff;stroke-miterlimit:10;}</style></defs><title>xxd-white</title><g id="Layer_2" data-name="Layer 2"><g id="Layer_1-2" data-name="Layer 1"><path class="cls-1" d="M59.81,22a1.17,1.17,0,0,1-.63,1.08q-2.52,1.44-5.58,3.33l-6.39,4c-2.22,1.38-4.47,2.81-6.75,4.27s-4.47,2.9-6.57,4.28c.36,2.4.73,4.79,1.12,7.15s.83,4.61,1.31,6.71q1.53,7,5.76,7a8.35,8.35,0,0,0,3.46-.9,20.86,20.86,0,0,0,4-2.52c.24-.24.43-.22.58,0s.08.46-.22.58c-.72.54-1.56,1.13-2.52,1.75a23.84,23.84,0,0,1-3.06,1.71A26.2,26.2,0,0,1,41,61.79a10.07,10.07,0,0,1-3.1.54,4,4,0,0,1-4-2.39,25.24,25.24,0,0,1-1.57-6.7c-.24-1.74-.5-3.61-.77-5.63s-.55-4.06-.85-6.16q-5.58,3.69-10.94,7.47T9.41,57c-.42.36-1,.94-1.85,1.75a34.71,34.71,0,0,0-2.38,2.66,22.27,22.27,0,0,0-2,2.92,5.28,5.28,0,0,0-.85,2.48q0,.54-.27.63a9.53,9.53,0,0,1-1-1.22A2.48,2.48,0,0,1,.5,64.85a4.23,4.23,0,0,1,.85-2.34A18.28,18.28,0,0,1,3.56,59.9a34.83,34.83,0,0,1,3.15-2.75c1.2-.92,2.43-1.84,3.69-2.74q4.95-3.51,9.94-7t10.22-6.93q-.45-3-1-6t-1.26-5.94q-.72-3.06-2.39-4.09a7.25,7.25,0,0,0-3.91-1,16.22,16.22,0,0,0-4,.58,12.72,12.72,0,0,0-4,1.85c-.48.24-.74.24-.77,0s.11-.45.41-.63a37.26,37.26,0,0,1,6.16-2.57,22.53,22.53,0,0,1,6.71-1q3.15,0,4.5,1.71T32.81,29q.18,1.89.45,4.41T33.8,38q12-8.1,23.49-16.92.54-.45.54-.81a2.34,2.34,0,0,0-.09-.72q-.09-.27.36-.27c.3,0,.66.35,1.08,1A3.56,3.56,0,0,1,59.81,22Z"/><path class="cls-1" d="M73.13,49.55a40.93,40.93,0,0,1-4.95,5.31,42.7,42.7,0,0,1-5.13,4,16.12,16.12,0,0,1-3.69,1.8,10.93,10.93,0,0,1-3.42.63,10.32,10.32,0,0,1-1.26-.09,3.24,3.24,0,0,1-1.31-.45,3.2,3.2,0,0,1-1-.95,2.68,2.68,0,0,1-.4-1.57,8.61,8.61,0,0,1,.9-3.2q.9-2,2.11-4.18t2.43-4.14c.81-1.32,1.46-2.31,1.94-3a3.45,3.45,0,0,1,1.57-1.22,5.26,5.26,0,0,1,1.49-.49q.45,0,.45.27a1.77,1.77,0,0,1-.14.54,1.51,1.51,0,0,1-.31.54q-1.17,1.8-2.39,4t-2.2,4.18a32.84,32.84,0,0,0-1.58,3.74,8.92,8.92,0,0,0-.58,2.7,1.93,1.93,0,0,0,.58,1.57,2.32,2.32,0,0,0,1.58.5,8.21,8.21,0,0,0,4-1.22,30.87,30.87,0,0,0,4.27-2.92A41,41,0,0,0,70,52.34a34.58,34.58,0,0,0,2.79-3.24c.3-.3.46-.37.49-.22A1.28,1.28,0,0,1,73.13,49.55Zm-4-20.07a3.31,3.31,0,0,1-1,2.16A2.76,2.76,0,0,1,66,32.72a1,1,0,0,1-1.08-1.08,3.58,3.58,0,0,1,.85-2.25,2.61,2.61,0,0,1,2.12-1.08A1,1,0,0,1,69.08,29.48Z"/><path class="cls-1" d="M96.8,49.73a49,49,0,0,1-3.74,4.54,33.89,33.89,0,0,1-4.5,4.1,27.81,27.81,0,0,1-4.86,3,11.21,11.21,0,0,1-4.81,1.17,6,6,0,0,1-2-.32,1.45,1.45,0,0,1-.9-1.57,8.07,8.07,0,0,1,.9-3.2c.6-1.28,1.3-2.65,2.11-4.09s1.65-2.91,2.52-4.41a39,39,0,0,0,2.12-4.14,1,1,0,0,0,0-.77c-.09-.2-.28-.22-.58,0a27.59,27.59,0,0,0-2.34,1.71C79.88,46.4,79,47.17,78,48s-1.83,1.64-2.7,2.48a26.79,26.79,0,0,0-2.11,2.25Q71.78,55,70.74,56.84t-2.56,4.23q-.36.54-.54.54c-.3,0-.56-.33-.77-1a5.75,5.75,0,0,1-.31-1.26,4.11,4.11,0,0,1,1.12-2.21c.75-.92,1.58-2,2.48-3.1,1-1.92,2-3.94,3-6.08s1.89-4,2.61-5.71a.88.88,0,0,1,.81-.45A1.55,1.55,0,0,1,78,43.25a9.92,9.92,0,0,1-1.31,2.47,44.36,44.36,0,0,0-2.56,4.91q1.71-1.53,3.73-3.24t3.87-3.15C83,43.28,84,42.48,85,41.85a4.57,4.57,0,0,1,1.94-.94.86.86,0,0,1,.67.4,1.29,1.29,0,0,1,.32.77,2.39,2.39,0,0,1-.45,1.08q-1,1.44-2.43,3.69c-1,1.5-1.88,3-2.75,4.63A49.05,49.05,0,0,0,80.06,56a9.6,9.6,0,0,0-.9,3.42,2,2,0,0,0,.45,1.49,2.12,2.12,0,0,0,1.44.4,7.6,7.6,0,0,0,3.6-1.17,32,32,0,0,0,4.27-2.93,36.58,36.58,0,0,0,4.19-3.91,30.26,30.26,0,0,0,3.24-4.14.41.41,0,0,1,.54-.14C97.13,49.15,97.1,49.37,96.8,49.73Z"/><path class="cls-1" d="M149,1.49a1.56,1.56,0,0,1-.54,1.08,2.81,2.81,0,0,0-.72,1.53q-.18.63-.63.63a1.09,1.09,0,0,1-.54-.14l-.68-.31a5.49,5.49,0,0,0-1-.32,8.59,8.59,0,0,0-1.66-.13,11.91,11.91,0,0,0-3.06.4,9.73,9.73,0,0,0-2.79,1.22A32.77,32.77,0,0,0,131.94,10a48.75,48.75,0,0,0-5.35,6.48q-6,8.64-10.58,16.15t-7.6,13.46a91.52,91.52,0,0,0-4.59,10.12,20.48,20.48,0,0,0-1.53,6.17,4.38,4.38,0,0,0,.67,2.52,2.48,2.48,0,0,0,2.21,1,8,8,0,0,0,4.63-1.53A22.56,22.56,0,0,0,114,60.57a33.49,33.49,0,0,0,3.6-5.08q1.62-2.79,2.79-5.22A.47.47,0,0,1,121,50c.27.06.26.3,0,.72a69.85,69.85,0,0,1-3.47,6.16A34.7,34.7,0,0,1,113.58,62a17.79,17.79,0,0,1-4.23,3.47A8.73,8.73,0,0,1,105,66.74a4.63,4.63,0,0,1-3.6-1.3,4.89,4.89,0,0,1-1.17-3.38,14.3,14.3,0,0,1,.85-4.64,53.26,53.26,0,0,1,2.66-6.07q-2.52,3.06-4.41,5.13A32.29,32.29,0,0,1,96,59.72a12.65,12.65,0,0,1-2.48,1.66,4.36,4.36,0,0,1-1.84.5A1.94,1.94,0,0,1,90,61.21a3.15,3.15,0,0,1-.45-1.76A6.94,6.94,0,0,1,90,57.33a12.14,12.14,0,0,1,1.26-2.56A35.87,35.87,0,0,1,98.64,46a21.35,21.35,0,0,1,10.13-4.5q4.32-7.56,8.28-13.59a144.38,144.38,0,0,1,8.64-11.79,88.24,88.24,0,0,1,7.69-8.55,29.3,29.3,0,0,1,7.88-5.58A12.86,12.86,0,0,1,146.57.5a4.76,4.76,0,0,1,1.75.27C148.77,1,149,1.19,149,1.49ZM108.05,42.8a10.08,10.08,0,0,0-5.27,1.3,14.41,14.41,0,0,0-3.28,3,39.2,39.2,0,0,0-4.86,7.24,12,12,0,0,0-1.44,4.46.64.64,0,0,0,.36.63,1.38,1.38,0,0,0,.54.18,5.15,5.15,0,0,0,2.29-1.35,31.17,31.17,0,0,0,3.69-3.65,63.07,63.07,0,0,0,4.19-5.35A43.52,43.52,0,0,0,108.05,42.8Z"/><path class="cls-1" d="M137.3,49.55a40.93,40.93,0,0,1-5,5.31,42.7,42.7,0,0,1-5.13,4,16.12,16.12,0,0,1-3.69,1.8,10.93,10.93,0,0,1-3.42.63,10.32,10.32,0,0,1-1.26-.09,3.24,3.24,0,0,1-1.31-.45,3.2,3.2,0,0,1-1-.95,2.68,2.68,0,0,1-.4-1.57,8.61,8.61,0,0,1,.9-3.2q.9-2,2.11-4.18t2.43-4.14c.81-1.32,1.46-2.31,1.94-3a3.45,3.45,0,0,1,1.57-1.22,5.26,5.26,0,0,1,1.49-.49q.45,0,.45.27a1.77,1.77,0,0,1-.14.54,1.51,1.51,0,0,1-.31.54q-1.17,1.8-2.39,4T122,51.57a32.84,32.84,0,0,0-1.58,3.74,8.92,8.92,0,0,0-.58,2.7,1.93,1.93,0,0,0,.58,1.57,2.32,2.32,0,0,0,1.58.5,8.21,8.21,0,0,0,4-1.22,30.87,30.87,0,0,0,4.27-2.92,41,41,0,0,0,3.92-3.6,34.58,34.58,0,0,0,2.79-3.24c.3-.3.46-.37.49-.22A1.28,1.28,0,0,1,137.3,49.55Zm-4.05-20.07a3.31,3.31,0,0,1-.95,2.16,2.76,2.76,0,0,1-2.11,1.08,1,1,0,0,1-1.08-1.08,3.58,3.58,0,0,1,.85-2.25,2.61,2.61,0,0,1,2.12-1.08A1,1,0,0,1,133.25,29.48Z"/><path class="cls-1" d="M206.51,22a1.17,1.17,0,0,1-.63,1.08q-2.52,1.44-5.58,3.33l-6.39,4c-2.22,1.38-4.47,2.81-6.75,4.27s-4.47,2.9-6.57,4.28c.36,2.4.73,4.79,1.12,7.15s.83,4.61,1.31,6.71q1.53,7,5.76,7a8.35,8.35,0,0,0,3.46-.9,20.86,20.86,0,0,0,4-2.52c.24-.24.43-.22.58,0s.08.46-.22.58c-.72.54-1.56,1.13-2.52,1.75A23.84,23.84,0,0,1,191,60.48a26.2,26.2,0,0,1-3.29,1.31,10.07,10.07,0,0,1-3.1.54,4,4,0,0,1-4-2.39,25.24,25.24,0,0,1-1.57-6.7c-.24-1.74-.5-3.61-.77-5.63s-.55-4.06-.85-6.16q-5.58,3.69-10.94,7.47T156.11,57c-.42.36-1,.94-1.85,1.75a34.71,34.71,0,0,0-2.38,2.66,22.27,22.27,0,0,0-2,2.92,5.28,5.28,0,0,0-.85,2.48q0,.54-.27.63a9.53,9.53,0,0,1-1-1.22,2.48,2.48,0,0,1-.54-1.39,4.23,4.23,0,0,1,.85-2.34,18.28,18.28,0,0,1,2.21-2.61,34.83,34.83,0,0,1,3.15-2.75c1.2-.92,2.43-1.84,3.69-2.74q5-3.51,9.94-7t10.22-6.93q-.45-3-1-6T175,28.49q-.72-3.06-2.39-4.09a7.25,7.25,0,0,0-3.91-1,16.22,16.22,0,0,0-4,.58,12.72,12.72,0,0,0-4,1.85c-.48.24-.74.24-.77,0s.11-.45.41-.63a37.26,37.26,0,0,1,6.16-2.57,22.53,22.53,0,0,1,6.71-1q3.15,0,4.5,1.71t1.8,5.76q.18,1.89.45,4.41T180.5,38q12-8.1,23.49-16.92.54-.45.54-.81a2.34,2.34,0,0,0-.09-.72q-.09-.27.36-.27c.3,0,.66.35,1.08,1A3.56,3.56,0,0,1,206.51,22Z"/><path class="cls-1" d="M226.49,50.54a57.29,57.29,0,0,1-3.6,4.54,44.65,44.65,0,0,1-4.32,4.37A26.51,26.51,0,0,1,214,62.73,9.12,9.12,0,0,1,209.57,64a2.92,2.92,0,0,1-3.24-3.33,8.88,8.88,0,0,1,.22-1.85,13.11,13.11,0,0,1,.77-2.29c-.36.42-.77.92-1.22,1.48a11.67,11.67,0,0,1-1.53,1.62,7.74,7.74,0,0,1-1.89,1.27,5.23,5.23,0,0,1-2.29.49,2.25,2.25,0,0,1-1.62-.59,2.38,2.38,0,0,1-.63-1.84,6.64,6.64,0,0,1,.31-1.8,23,23,0,0,1,1.17-2.93q.85-1.83,2.34-4.58t3.83-6.8q.45-.9.81-.9a1.86,1.86,0,0,1,1.3.76c.45.52.68.86.68,1a2.78,2.78,0,0,1-.54,1.08q-1.44,2.16-2.7,4.32t-2.21,4.05c-.63,1.26-1.14,2.38-1.53,3.37a6.85,6.85,0,0,0-.58,2.3q0,1.35,1,1.35a4.4,4.4,0,0,0,2.47-1.4,23.6,23.6,0,0,0,3.74-4.72c.54-1,1.09-2,1.66-3s1.13-2,1.67-3,1-1.85,1.53-2.65.84-1.43,1.08-1.85.54-.63.72-.63.51.26.81.76a3.62,3.62,0,0,1,.45,1.85,2.68,2.68,0,0,1-.36,1.35c-.72,1.08-1.49,2.15-2.3,3.19a36.75,36.75,0,0,0-2.25,3.29,22.18,22.18,0,0,0-1.75,3.6,11.54,11.54,0,0,0-.72,4.14q0,2,1.89,2a6.62,6.62,0,0,0,3-1,24,24,0,0,0,3.83-2.65,41.76,41.76,0,0,0,4.27-4.14A50.28,50.28,0,0,0,226,50.09Q226.49,49.91,226.49,50.54Z"/><path class="cls-1" d="M27.62,80c.08,1.15,2.41,3.15,5,4a74.79,74.79,0,0,0,9.27,2.22q6,1.11,17.74,2.23T85.8,90.31q14.49.73,30.59.79t31.31-.94q8.25-.54,13.51-1.43a48.58,48.58,0,0,0,8.17-2c1.94-.71,5.68-2,6-4.15S177,80.48,177,82a4.76,4.76,0,0,1-1.6,3.44,16.58,16.58,0,0,1-6.09,3.23,73.1,73.1,0,0,1-11.77,2.72q-7.38,1.21-18.62,1.95-12.55.83-25.84.82t-25.59-.57Q75.21,93,64.51,92T46.44,89.77a72.44,72.44,0,0,1-15-3.83q-5.62-2.26-5.81-5.15C25.51,79.36,27.53,78.58,27.62,80Z"/></g></g></svg>